<svg width="22" height="21" viewBox="0 0 22 21" fill="none" xmlns="http://www.w3.org/2000/svg">
<g style="mix-blend-mode:hard-light">
<g style="mix-blend-mode:hard-light" filter="url(#filter0_d_458_364)">
<path d="M7.91012 2.08753L7.87081 2.05053C7.72543 1.91012 7.53072 1.83242 7.32861 1.83418C7.12651 1.83594 6.93317 1.917 6.79026 2.05992C6.64734 2.20284 6.56627 2.39617 6.56452 2.59827C6.56276 2.80038 6.64046 2.99509 6.78087 3.14047L6.81787 3.17901C5.49514 4.72605 4.65417 6.69318 4.95248 8.75975C4.9797 8.89607 5.04328 9.02249 5.13648 9.12563C5.22968 9.22876 5.34903 9.30478 5.48191 9.34562C5.61478 9.38646 5.75623 9.39061 5.89127 9.35763C6.02631 9.32465 6.14991 9.25576 6.249 9.15827C6.86335 8.42676 7.48231 7.70142 8.14907 7.01693C8.53262 6.61912 8.93602 6.24093 9.35772 5.88382L15.2298 12.1336C15.3006 12.2088 15.3856 12.2691 15.4801 12.3108C15.5745 12.3525 15.6763 12.3748 15.7795 12.3765C15.8827 12.3782 15.9852 12.3591 16.081 12.3204C16.1767 12.2817 16.2636 12.2243 16.3367 12.1514L16.8817 11.6064C16.9547 11.5334 17.0123 11.4464 17.051 11.3507C17.0897 11.255 17.1088 11.1524 17.1072 11.0492C17.1055 10.9459 17.0831 10.8441 17.0414 10.7497C16.9996 10.6552 16.9393 10.5702 16.864 10.4995L10.6142 4.62738C10.9217 4.25816 11.3079 3.84808 11.7473 3.41874C12.4102 2.77279 13.1101 2.17232 13.8208 1.57956C13.9355 1.48783 14.0217 1.36523 14.069 1.22618C14.1164 1.08714 14.1231 0.937447 14.0883 0.794735C14.0535 0.652024 13.9786 0.522236 13.8725 0.420656C13.7663 0.319076 13.6334 0.249934 13.4893 0.221373C11.4235 -0.0761639 9.45639 0.764801 7.91012 2.08753Z" fill="white" fill-opacity="0.8" shape-rendering="crispEdges"/>
</g>
</g>
<defs>
<filter id="filter0_d_458_364" x="0.739405" y="0.161499" width="20.5208" height="20.5209" filterUnits="userSpaceOnUse" color-interpolation-filters="sRGB">
<feFlood flood-opacity="0" result="BackgroundImageFix"/>
<feColorMatrix in="SourceAlpha" type="matrix" values="0 0 0 0 0 0 0 0 0 0 0 0 0 0 0 0 0 0 127 0" result="hardAlpha"/>
<feOffset dy="4.15293"/>
<feGaussianBlur stdDeviation="2.07646"/>
<feComposite in2="hardAlpha" operator="out"/>
<feColorMatrix type="matrix" values="0 0 0 0 0.819608 0 0 0 0 0.792157 0 0 0 0 0.270588 0 0 0 0.32 0"/>
<feBlend mode="normal" in2="BackgroundImageFix" result="effect1_dropShadow_458_364"/>
<feBlend mode="normal" in="SourceGraphic" in2="effect1_dropShadow_458_364" result="shape"/>
</filter>
</defs>
</svg>
