<svg width="13" height="19" viewBox="0 0 13 19" fill="none" xmlns="http://www.w3.org/2000/svg">
<path d="M6.56019 0.0572635C6.28131 -0.0650135 6.00658 0.0205265 5.82987 0.200495C5.65827 0.375311 5.57238 0.642119 5.63256 0.911132C5.72761 1.33574 5.77778 1.7775 5.77778 2.23127C5.77778 3.26726 5.51672 3.99286 5.0674 4.59437C4.61067 5.20584 3.94958 5.70364 3.11486 6.26533C3.10173 6.27416 3.08951 6.28426 3.07838 6.29548L2.97728 6.39736C1.18632 7.55441 0 9.56907 0 11.8609C0 15.4507 2.91015 18.3609 6.5 18.3609C10.0898 18.3609 13 15.4507 13 11.8609C13 10.8069 12.749 9.81077 12.3032 8.92985C12.2669 8.85821 12.1973 8.80938 12.1175 8.79956C12.0378 8.78984 11.9585 8.82055 11.9061 8.88132C11.8382 8.96009 11.7716 9.0378 11.7062 9.11435C10.8604 10.1025 10.1778 10.9 8.77856 11.2562C8.71905 11.2713 8.68207 11.26 8.65579 11.2437C8.62497 11.2244 8.59117 11.1859 8.56806 11.1243C8.51982 10.9962 8.54052 10.8327 8.63932 10.7256C9.38773 9.91419 9.91939 8.81275 10.1094 7.24587C10.4652 4.31085 9.1313 1.18451 6.56019 0.0572635Z" fill="#96FD02"/>
</svg>
