<svg width="16" height="16" viewBox="0 0 16 16" fill="none" xmlns="http://www.w3.org/2000/svg">
<g style="mix-blend-mode:hard-light">
<path d="M9.98042 0.0240766C10.7763 0.221184 11.538 0.536934 12.2399 0.960719C12.3806 1.04564 12.4926 1.17081 12.5614 1.32006C12.6303 1.46931 12.6528 1.63578 12.626 1.79795C12.5332 2.36404 12.6737 2.79703 12.9382 3.06159C13.2028 3.32615 13.6366 3.46665 14.2019 3.3738C14.3641 3.34705 14.5305 3.36954 14.6798 3.43838C14.829 3.50722 14.9542 3.61924 15.0391 3.75996C15.4629 4.46185 15.7787 5.22353 15.9758 6.01941C16.0154 6.17908 16.0063 6.34698 15.9494 6.50138C15.8926 6.65578 15.7907 6.78956 15.657 6.88539C15.1911 7.21979 14.9832 7.62485 14.9832 7.9995C14.9832 8.37416 15.1911 8.78004 15.657 9.11444C15.7905 9.21021 15.8923 9.34385 15.9492 9.49808C16.006 9.65232 16.0153 9.82005 15.9758 9.9796C15.7786 10.7755 15.4629 11.5371 15.0391 12.239C14.9542 12.3798 14.829 12.4918 14.6798 12.5606C14.5305 12.6295 14.3641 12.652 14.2019 12.6252C13.6358 12.5324 13.2028 12.6737 12.9382 12.9374C12.6737 13.202 12.5332 13.6358 12.626 14.2011C12.653 14.3634 12.6305 14.53 12.5617 14.6794C12.4929 14.8288 12.3807 14.9541 12.2399 15.0391C11.538 15.4629 10.7763 15.7786 9.98042 15.9758C9.82075 16.0154 9.65284 16.0063 9.49845 15.9494C9.34405 15.8926 9.21027 15.7907 9.11444 15.657C8.78004 15.1903 8.37498 14.9832 8.00032 14.9832C7.62567 14.9832 7.21979 15.1903 6.88539 15.657C6.78961 15.7905 6.65597 15.8923 6.50174 15.9492C6.34751 16.006 6.17978 16.0152 6.02023 15.9758C5.22437 15.7786 4.46269 15.4629 3.76079 15.0391C3.61992 14.9541 3.5078 14.8288 3.43895 14.6794C3.3701 14.53 3.34769 14.3634 3.37463 14.2011C3.46747 13.6358 3.32615 13.2028 3.06241 12.9382C2.79703 12.6737 2.36404 12.5324 1.79877 12.626C1.63647 12.653 1.46983 12.6305 1.32041 12.5617C1.171 12.4929 1.04569 12.3807 0.960719 12.2399C0.536793 11.5374 0.22104 10.7752 0.0240766 9.97878C-0.0154226 9.81923 -0.0061588 9.65149 0.0506709 9.49726C0.107501 9.34303 0.209283 9.20939 0.342864 9.11362C0.809542 8.78004 1.01659 8.37416 1.01659 7.9995C1.01659 7.62567 0.809542 7.21897 0.342864 6.88539C0.209283 6.78962 0.107501 6.65597 0.0506709 6.50174C-0.0061588 6.34751 -0.0154226 6.17978 0.0240766 6.02023C0.221106 5.22408 0.536858 4.46212 0.960719 3.75996C1.04569 3.61909 1.171 3.50698 1.32041 3.43813C1.46983 3.36928 1.63647 3.34687 1.79877 3.3738C2.36404 3.46665 2.79703 3.32615 3.06159 3.06159C3.32615 2.79703 3.46747 2.36322 3.3738 1.79795C3.34705 1.63578 3.36954 1.46931 3.43838 1.32006C3.50722 1.17081 3.61924 1.04564 3.75996 0.960719C4.46211 0.536847 5.22407 0.221094 6.02023 0.0240766C6.17978 -0.0154227 6.34751 -0.00615868 6.50174 0.050671C6.65597 0.107501 6.78961 0.209283 6.88539 0.342864C7.21979 0.80872 7.62567 1.01659 8.00032 1.01659C8.37416 1.01659 8.78086 0.80872 9.11444 0.342864C9.21021 0.209283 9.34385 0.107501 9.49808 0.050671C9.65232 -0.00615868 9.82087 -0.0154227 9.98042 0.0240766ZM8.00032 3.89142C6.91079 3.89142 5.86589 4.32424 5.09547 5.09465C4.32506 5.86507 3.89224 6.90997 3.89224 7.9995C3.89224 9.08903 4.32506 10.1339 5.09547 10.9044C5.86589 11.6748 6.91079 12.1076 8.00032 12.1076C9.08986 12.1076 10.1348 11.6748 10.9052 10.9044C11.6756 10.1339 12.1084 9.08903 12.1084 7.9995C12.1084 6.90997 11.6756 5.86507 10.9052 5.09465C10.1348 4.32424 9.08986 3.89142 8.00032 3.89142ZM8.00032 5.53466C8.65404 5.53466 9.28099 5.79434 9.74324 6.25659C10.2055 6.71884 10.4652 7.34579 10.4652 7.9995C10.4652 8.65322 10.2055 9.28017 9.74324 9.74241C9.28099 10.2047 8.65404 10.4644 8.00032 10.4644C7.34661 10.4644 6.71966 10.2047 6.25741 9.74241C5.79516 9.28017 5.53548 8.65322 5.53548 7.9995C5.53548 7.34579 5.79516 6.71884 6.25741 6.25659C6.71966 5.79434 7.34661 5.53466 8.00032 5.53466Z" fill="#E2E2E2"/>
</g>
</svg>
