<svg width="7" height="5" viewBox="0 0 7 5" fill="none" xmlns="http://www.w3.org/2000/svg">
<g style="mix-blend-mode:hard-light">
<path d="M3.47853 4.19586C3.39433 4.19635 3.31087 4.18021 3.23292 4.14837C3.15497 4.11654 3.08407 4.06962 3.02429 4.01033L0.465205 1.45124C0.405554 1.39159 0.358236 1.32077 0.325953 1.24284C0.29367 1.1649 0.277054 1.08136 0.277054 0.997004C0.277054 0.912644 0.29367 0.82911 0.325953 0.751171C0.358236 0.673233 0.405554 0.602417 0.465205 0.542766C0.524857 0.483114 0.595673 0.435796 0.673612 0.403513C0.75155 0.37123 0.835084 0.354614 0.919443 0.354614C1.0038 0.354614 1.08734 0.37123 1.16528 0.403513C1.24321 0.435796 1.31403 0.483114 1.37368 0.542766L3.47853 2.66041L5.58978 0.625936C5.64863 0.560494 5.72036 0.507899 5.80046 0.471441C5.88057 0.434983 5.96734 0.415446 6.05534 0.414052C6.14334 0.412657 6.23069 0.429436 6.31191 0.463338C6.39313 0.49724 6.46649 0.547537 6.52738 0.611082C6.58828 0.674627 6.63541 0.750053 6.66583 0.832644C6.69625 0.915235 6.70929 1.00321 6.70416 1.09108C6.69902 1.17894 6.67581 1.2648 6.63598 1.34328C6.59615 1.42177 6.54055 1.49119 6.47266 1.54721L3.91358 4.01673C3.79658 4.12953 3.64104 4.19358 3.47853 4.19586Z" fill="white" fill-opacity="0.8"/>
</g>
</svg>
