<svg width="22" height="21" viewBox="0 0 22 21" fill="none" xmlns="http://www.w3.org/2000/svg">
<g style="mix-blend-mode:hard-light" filter="url(#filter0_d_167_243)">
<path d="M7.91012 2.24213L7.87081 2.20513C7.72543 2.06472 7.53072 1.98703 7.32861 1.98878C7.12651 1.99054 6.93317 2.07161 6.79026 2.21452C6.64734 2.35744 6.56627 2.55077 6.56452 2.75288C6.56276 2.95498 6.64046 3.14969 6.78087 3.29507L6.81787 3.33361C5.49514 4.88065 4.65417 6.84778 4.95248 8.91435C4.9797 9.05067 5.04328 9.17709 5.13648 9.28023C5.22968 9.38337 5.34903 9.45938 5.48191 9.50022C5.61478 9.54106 5.75623 9.54521 5.89127 9.51223C6.02631 9.47925 6.14991 9.41036 6.249 9.31287C6.86335 8.58136 7.48231 7.85602 8.14907 7.17153C8.53262 6.77372 8.93602 6.39553 9.35772 6.03842L15.2298 12.2882C15.3006 12.3634 15.3856 12.4237 15.4801 12.4654C15.5745 12.5071 15.6763 12.5294 15.7795 12.5311C15.8827 12.5328 15.9852 12.5137 16.081 12.475C16.1767 12.4363 16.2636 12.3789 16.3367 12.306L16.8817 11.761C16.9547 11.688 17.0123 11.601 17.051 11.5053C17.0897 11.4096 17.1088 11.307 17.1072 11.2038C17.1055 11.1005 17.0831 10.9987 17.0414 10.9043C16.9996 10.8098 16.9393 10.7248 16.864 10.6541L10.6142 4.78198C10.9217 4.41276 11.3079 4.00269 11.7473 3.57334C12.4102 2.92739 13.1101 2.32692 13.8208 1.73416C13.9355 1.64243 14.0217 1.51983 14.069 1.38078C14.1164 1.24174 14.1231 1.09205 14.0883 0.949337C14.0535 0.806626 13.9786 0.676838 13.8725 0.575258C13.7663 0.473678 13.6334 0.404536 13.4893 0.375975C11.4235 0.0784381 9.45639 0.919403 7.91012 2.24213Z" fill="white" fill-opacity="0.32" shape-rendering="crispEdges"/>
</g>
<defs>
<filter id="filter0_d_167_243" x="0.739405" y="0.316101" width="20.5208" height="20.5209" filterUnits="userSpaceOnUse" color-interpolation-filters="sRGB">
<feFlood flood-opacity="0" result="BackgroundImageFix"/>
<feColorMatrix in="SourceAlpha" type="matrix" values="0 0 0 0 0 0 0 0 0 0 0 0 0 0 0 0 0 0 127 0" result="hardAlpha"/>
<feOffset dy="4.15293"/>
<feGaussianBlur stdDeviation="2.07646"/>
<feComposite in2="hardAlpha" operator="out"/>
<feColorMatrix type="matrix" values="0 0 0 0 0.819608 0 0 0 0 0.792157 0 0 0 0 0.270588 0 0 0 0.32 0"/>
<feBlend mode="normal" in2="BackgroundImageFix" result="effect1_dropShadow_167_243"/>
<feBlend mode="normal" in="SourceGraphic" in2="effect1_dropShadow_167_243" result="shape"/>
</filter>
</defs>
</svg>
