<svg width="612" height="612" viewBox="0 0 612 612" fill="none" xmlns="http://www.w3.org/2000/svg">
<g clip-path="url(#clip0_23_778)">
<circle cx="306" cy="306" r="306" fill="white"/>
<path d="M89 472.78C89 460.34 89 448.37 89.08 436.4C89.08 435.73 89.99 434.81 90.71 434.4C103.51 427.8 116.36 421.27 129.19 414.71L414.49 269.14L520.36 215.14C521.07 214.78 521.79 214.45 522.75 214V225.15C522.75 233.03 522.66 240.92 522.81 248.8C522.922 249.621 522.741 250.455 522.298 251.156C521.855 251.857 521.18 252.379 520.39 252.63C516.09 254.63 511.87 256.84 507.64 259.07C494.97 265.8 488.64 276.33 488.79 290.72C488.88 299.86 489.29 309.02 488.79 318.13C487.741 340.171 482.34 361.786 472.9 381.73C446.43 437.55 403.09 473.06 342.64 485.81C291 496.71 243.05 485.97 199.64 455.81C199.17 455.49 198.74 455.1 198.12 454.6C198.92 454.17 199.55 453.81 200.2 453.48C210.32 448.31 220.45 443.17 230.54 437.94C231.056 437.61 231.657 437.434 232.27 437.434C232.883 437.434 233.484 437.61 234 437.94C258.057 451.329 285.423 457.606 312.91 456.04C355.54 453.69 391.12 436.33 419.32 404.24C436.797 384.379 448.549 360.142 453.32 334.12C456.264 318.529 456.766 302.575 454.81 286.83C454.81 286.7 454.69 286.59 454.49 286.19L89 472.78Z" fill="black"/>
<path d="M89 397.65C89 385.34 89 373.42 89.07 361.55C89.1593 361.13 89.3376 360.734 89.5929 360.389C89.8482 360.044 90.1746 359.758 90.55 359.55C94.91 357.16 99.42 355 103.84 352.69C116.84 345.89 123.4 335.18 122.84 320.52C122.44 309.43 122.2 298.38 123.29 287.32C125.981 260.714 134.444 235.016 148.088 212.018C161.732 189.019 180.23 169.274 202.29 154.16C224.77 138.529 250.551 128.291 277.63 124.24C317.38 118.24 355.19 124.39 390.87 142.98C397.24 146.3 403.25 150.33 409.41 154.08C410.79 154.92 412.07 155.94 413.55 156.99C412.91 157.36 412.55 157.63 412.1 157.86C401.72 163.193 391.343 168.507 380.97 173.8C380.479 174.109 379.908 174.269 379.328 174.26C378.747 174.251 378.182 174.074 377.7 173.75C359.799 163.747 339.951 157.723 319.51 156.09C275.17 152.64 236.31 165.77 203.51 195.95C181.84 215.9 167.51 240.39 160.3 268.95C155.679 287.435 154.56 306.623 157 325.52L522.75 138.82V162.35C522.75 166.29 522.65 170.24 522.75 174.17C522.831 174.85 522.677 175.537 522.313 176.118C521.949 176.698 521.397 177.136 520.75 177.36C491.583 192.2 462.427 207.08 433.28 222L167.28 357.78L91.28 396.58C90.62 396.9 90 397.2 89 397.65Z" fill="black"/>
</g>
<defs>
<clipPath id="clip0_23_778">
<rect width="612" height="612" fill="white"/>
</clipPath>
</defs>
</svg>
