<svg width="317" height="317" viewBox="0 0 317 317" fill="none" xmlns="http://www.w3.org/2000/svg">
<path d="M317 158.5C317 246.037 246.037 317 158.5 317C70.9629 317 0 246.037 0 158.5C0 70.9629 70.9629 0 158.5 0C246.037 0 317 70.9629 317 158.5Z" fill="#C1C8E3"/>
<path d="M300.058 261.425C300.058 261.496 300 261.554 299.929 261.554C299.858 261.554 299.8 261.496 299.8 261.425C299.8 261.355 299.858 261.297 299.929 261.297C300 261.297 300.058 261.355 300.058 261.425Z" fill="#C1C8E3"/>
<path fill-rule="evenodd" clip-rule="evenodd" d="M242.22 176.191C233.972 213.617 200.505 241.625 160.474 241.625C136.739 241.625 115.312 231.779 100.08 215.962C113.316 226.976 130.355 233.603 148.946 233.603C183.102 233.603 212.015 211.235 221.74 180.395C203.688 183.283 181.888 184.97 158.412 184.97C96.1341 184.97 45.648 173.093 45.648 158.442C45.648 143.791 96.1341 131.914 158.412 131.914C182.126 131.914 204.13 133.636 222.289 136.578C213.145 104.802 183.771 81.5487 148.946 81.5487C133.429 81.5487 118.994 86.1656 106.948 94.0961C121.457 82.055 140.117 74.812 160.474 74.812C200.674 74.812 234.255 103.057 242.323 140.72C260.262 145.418 271.176 151.63 271.176 158.442C271.176 165.267 260.22 171.49 242.22 176.191ZM242.961 172.412C254.782 168.46 261.723 163.642 261.723 158.442C261.723 153.254 254.814 148.446 243.041 144.499C243.782 148.962 244.168 153.545 244.168 158.218C244.168 163.057 243.755 167.8 242.961 172.412ZM223.062 139.484C205.363 136.139 182.881 134.138 158.412 134.138C101.355 134.138 55.1007 145.019 55.1007 158.442C55.1007 171.865 101.355 182.747 158.412 182.747C182.665 182.747 204.966 180.78 222.592 177.489C224.316 171.142 225.236 164.466 225.236 157.576C225.236 151.341 224.483 145.282 223.062 139.484Z" fill="#030615"/>
<path d="M120.996 177.103C120.996 187.409 112.613 195.763 102.272 195.763C91.9306 195.763 83.5476 187.409 83.5476 177.103C83.5476 166.798 91.9306 158.443 102.272 158.443C112.613 158.443 120.996 166.798 120.996 177.103Z" fill="#030615"/>
</svg>
